<svg xmlns="http://www.w3.org/2000/svg" width="800" height="600" viewBox="0 0 800 600"><rect width="800" height="600" fill="#f3f4f6"/><rect width="600" height="400" x="100" y="100" fill="#fff" stroke="#36f" stroke-width="4" rx="20" ry="20"/><rect width="200" height="100" x="150" y="150" fill="#dbeafe" rx="10" ry="10"/><rect width="200" height="100" x="150" y="280" fill="#d1fae5" rx="10" ry="10"/><rect width="200" height="40" x="150" y="410" fill="#36f" rx="10" ry="10"/><rect width="270" height="300" x="380" y="150" fill="#edf0f7" rx="10" ry="10"/><circle cx="515" cy="220" r="70" fill="#bfdbfe"/><rect width="170" height="15" x="430" y="320" fill="#94a3b8" rx="5" ry="5"/><rect width="120" height="15" x="430" y="350" fill="#94a3b8" rx="5" ry="5"/><rect width="150" height="15" x="430" y="380" fill="#94a3b8" rx="5" ry="5"/><rect width="100" height="15" x="430" y="410" fill="#94a3b8" rx="5" ry="5"/><text x="250" y="190" fill="#36f" font-family="Arial" font-size="24" font-weight="bold" text-anchor="middle">Sildenafil</text><text x="250" y="320" fill="#36f" font-family="Arial" font-size="24" font-weight="bold" text-anchor="middle">Tadalafil</text><text x="250" y="430" fill="#fff" font-family="Arial" font-size="16" font-weight="bold" text-anchor="middle">Vardenafil</text><text x="400" y="550" fill="#94a3b8" font-family="Arial" font-size="20" font-weight="bold" text-anchor="middle">ED Medications</text></svg>